# xmcd
#
# Track frame offsets:
#	150
#	17710
#	33693
#	51037
#	66373
#	85091
#	107747
#	126792
#	145664
#	165069
#	187529
#	199476
#	216284
#	229159
#	247050
#	259518
#	277258
#	295717
#	311447
#
# Disc length: 4395 seconds
#
# Revision: 0
# Processed by: cddbd v1.5.1PL2 Copyright (c) Steve Scherf et al.
# Submitted via: dBpowerAMP V4.0
#
DISCID=10112913
DTITLE=The Prodigy - You'll Be Under My Wheels
DYEAR=1900
DGENRE=
TTITLE0=You'll Be Under My Wheels
TTITLE1=jshdfjksdg
TTITLE2=hsdfjklg
TTITLE3=jkhhdnhgjj
TTITLE4=bljkdfghlojsdo;hg
TTITLE5=gflefjgohief
TTITLE6=serlgjh
TTITLE7=typt'yuoprity
TTITLE8=ghopityo
TTITLE9=er;ltjty
TTITLE10=tyeoruthpeiorutypieurht
TTITLE11=tjeropthioerth
TTITLE12=yrurturyutyu
TTITLE13=uetyiuioseryu
TTITLE14=tyiryieruetyi
TTITLE15=yurtuotruyuiey
TTITLE16=ruryiruioetyu
TTITLE17=ulouier8tryuitu
TTITLE18=ytiuruoirirtyu
EXTD=
EXTT0=
EXTT1=
EXTT2=
EXTT3=
EXTT4=
EXTT5=
EXTT6=
EXTT7=
EXTT8=
EXTT9=
EXTT10=
EXTT11=
EXTT12=
EXTT13=
EXTT14=
EXTT15=
EXTT16=
EXTT17=
EXTT18=
PLAYORDER=
